Patient4_TMGait_0pt4_02_left_11_EMG.mot
version=1
nRows=26
nColumns=33
inDegrees=no
endheader
time	1LAddLong	2LGlutMax	3LGlutMed	4LIliopsoas	5LSemiMemb	6LBicFemLong	7LRecFem	8LVastMed	9LVastLat	10LGasMed	11LTibAnt	12lTibPost	13LPeroneusLong	14LSol	15LExtDigLong	16LFlexDigLong	17RAddLong	18RGlutMax	19RGlutMed	20RIliopsoas	21RSemiMemb	22RBicFemLong	23RRecFem	24RVastMed	25RVastLat	26RGasMed	27RTibAnt	28RTibPost	29RPeroneusLong	30RSol	31RExtDigLong	32RFlexDigLong
16.073	0.006409	0.072021	-0.022888	0.015106	-0.053101	0.037231	-0.014801	0.005188	0.11459	0.015717	0.01297	0.004272	0.023041	-0.005798	0.019989	-0.019226	0.002289	-0.25009	0.2681	-0.1712	0.012054	0.032806	0.08667	-0.13306	-0.04837	-0.020905	0.14374	-0.000153	-0.002594	0.047302	-0.003357	-0.011749
16.074	-0.005646	0.063477	0.023956	0.000763	-0.10269	-0.005798	-0.019073	0.002136	0.13092	-0.014496	0.011444	0.014801	0.014801	-0.000916	0.018311	-0.00473	-0.014954	-0.27679	0.24155	-0.1294	-0.026703	0.03006	-0.029144	-0.04364	-0.044403	-0.026245	0.30731	0.052032	0.27313	0.31067	-0.001373	-0.012512
16.075	0.013123	0.069275	0.009155	0.006714	-0.11292	-0.082092	-0.026245	-0.004883	0.12192	-0.015259	0.017548	0.000458	0.006561	0.018005	0.022736	0.00412	-0.004425	-0.24918	0.039825	-0.054626	-0.047455	0.023041	-0.027161	-0.065613	0.019989	-0.013428	-0.10132	-0.062866	0.36499	0.19745	-0.003967	-0.003967
16.076	0.016632	0.069885	-0.026703	0.017395	0.050812	-0.079193	0.003662	0.002136	0.11887	-0.021667	0.018463	0.007629	-0.001984	-0.048981	0.046387	-0.00473	-0.008392	-0.28015	-0.001678	0.086517	-0.001221	0.041504	-0.084381	-0.067139	0.12482	-0.05127	-0.46448	-0.099792	0.066376	-0.016174	-0.005798	-0.003815
16.077	0.011902	0.072937	-0.067444	0.02243	0.06958	-0.029907	-0.003204	0.00061	0.12528	-0.016174	0.009613	0.004272	-0.001221	-0.044861	0.057678	-0.002136	-0.0177	-0.32425	0.30136	0.17364	0.12421	0.059204	0.001526	0.051422	0.20676	-0.12741	-0.233	-0.020294	-0.3685	0.1445	0.001221	-0.005035
16.078	0.01297	0.069122	-0.066071	0.004272	0.020447	-0.028381	0.000153	-0.001831	0.12177	-0.025787	0.010529	-0.013428	0.017853	0.062103	0.023651	-0.001068	-0.02655	-0.32974	0.16098	0.22903	0.008087	0.061493	0.002594	0.14053	0.2504	-0.1178	-0.18249	0.087891	-0.48035	0.01297	0.001526	-0.008087
16.079	0.00946	0.06958	-0.043488	-0.001526	0.001068	-0.03006	0.003357	-0.000763	0.11871	-0.025787	0.00351	-0.005493	0.044098	0.0383	0.006866	0.001526	-0.021362	-0.37323	-0.069427	0.11932	0.041809	0.030212	0.033875	0.13138	0.1532	-0.050812	-0.08667	0.032654	-0.20172	-0.099792	-0.004425	-0.000458
16.08	0.005951	0.062561	-0.009155	0.01358	-0.008545	-0.029907	-0.020599	-0.000458	0.11902	-0.019989	0.014801	-0.002441	0.044098	-0.10941	-0.013275	-0.001068	-0.006714	-0.40741	-0.024719	-0.013428	0.050812	0.008087	0.14343	0.034332	0.003052	-0.00946	0.14664	-0.013733	0.016785	0.30441	-0.001068	-0.005035
16.081	0.008392	0.081329	0.010071	0.018463	-0.000916	-0.038757	0.003815	-0.003357	0.12039	-0.022736	0.006714	-0.000763	0.034943	-0.1651	-0.012817	-0.007019	0.010071	-0.34027	0.62225	-0.12756	0.019226	0.007782	0.055695	-0.14206	-0.14893	0.030823	0.23926	0.13992	-0.085602	0.1181	-0.001526	-0.001526
16.082	0.006561	0.058899	-0.003662	0.006561	-0.022583	-0.022583	0.006256	0.00061	0.11505	-0.02182	0.009155	-0.012054	0.05661	-0.059967	-0.011444	-0.002289	0.019684	-0.39612	0.8197	-0.091248	0.020142	-0.007935	-0.10681	-0.07431	-0.17075	0.057068	0.26474	0.14832	-0.099945	-0.19226	-0.007477	-0.001678
16.083	0.006104	0.092773	-0.004578	-0.002441	-0.015564	-0.039215	0.021362	0.001984	0.12207	-0.021362	0.00885	-0.009003	0.041656	-0.019226	0.039215	-0.004272	0.021973	-0.43976	0.55313	-0.090332	0.019073	-0.006714	0.075073	-0.088501	-0.078583	0.054016	0.23605	-0.018005	0.035553	-0.42938	-0.004272	0
16.084	0.006256	0.052338	-0.024872	0.00824	-0.009766	-0.048981	0.022278	0.002289	0.12817	-0.03067	0.000458	-0.015717	0.036011	0.039368	0.043793	-0.003204	0.024261	-0.50339	0.32166	0.028992	0.01236	-0.020599	0.065918	-0.02533	-0.010834	0.018311	-0.16357	-0.050201	-0.096436	-0.21133	-0.000458	-0.000458
16.085	0.005798	0.045319	-0.039063	0.010071	-0.011139	-0.037537	0.014801	-0.006866	0.12085	-0.043335	-0.003357	-0.019226	0.016174	0.036011	-0.018311	-0.005646	0.003815	-0.51468	0.34729	0.096283	-0.004425	-0.020599	-0.059204	-0.039215	-0.006866	0.000305	-0.55603	-0.007324	-0.22324	0.043945	-0.003052	-0.002289
16.086	0.002747	0.035858	-0.062866	0.010223	-0.013733	-0.055084	0.024261	0.005188	0.11383	-0.044403	-0.016632	-0.013123	0.004272	-0.031281	-0.037994	0.00061	-0.000458	-0.53604	-0.004578	0.089111	0.003357	0.003204	-0.19852	-0.098877	0.062561	0.003052	-0.37659	-0.011444	-0.091553	-0.013885	0	-0.006104
16.087	0.005646	0.021515	-0.082855	0.028534	-0.012817	-0.041351	0.046234	-0.002899	0.1181	-0.033875	-0.010681	-0.013885	-0.014343	-0.071259	-0.039215	-0.009766	0.018311	-0.51956	-0.19272	0.038605	0.023041	0.009766	0.012665	-0.13473	0.03006	0.040131	-0.20569	-0.007172	0.053406	-0.099945	0.001068	-0.003052
16.088	-0.001831	0.04425	-0.084229	0.020294	-0.02655	-0.033722	0.029297	-0.003357	0.10712	-0.036469	0.032196	-0.015717	-0.001373	-0.09552	0.001068	-0.005188	0.025635	-0.53665	-0.10223	0.031891	0.018158	0.012665	0.21316	-0.058441	-0.051422	0.025635	0.10834	-0.000458	0.077667	-0.13382	-0.005035	-0.009003
16.089	0.002441	0.045471	-0.063019	0.006104	-0.02121	-0.039368	0.044098	-0.006714	0.12161	-0.027924	0.06546	-0.013733	0.004578	-0.094452	-0.025635	-0.012817	0.02243	-0.50247	0.10956	0.061798	-0.038452	0.029907	0.23377	-0.027313	0.012207	0.013123	-0.24521	-0.003967	0.077972	0.071564	-0.00473	-0.01236
16.09	0.00351	0.016479	-0.063019	-0.00351	-0.021057	-0.031891	0.023346	-0.00412	0.10208	-0.037994	0.068512	-0.013885	-0.013885	-0.063934	0.052032	-0.002594	0.005341	-0.50262	0.24551	0.073395	-0.1059	0.028992	0.3421	0.006104	-0.065918	0.008698	-0.47669	-0.014191	0.16571	0.14954	-0.010529	-0.013275
16.091	0.004425	0.025635	-0.040283	-0.005951	0.003052	-0.028381	0.031891	-0.011444	0.10391	-0.023956	0.088043	-0.013428	-0.031433	-0.067139	0.78415	0.004883	0.003357	-0.44876	0.30472	0.029602	-0.004425	-0.010071	0.28488	-0.040588	-0.18173	0.00946	-0.42145	-0.011444	0.27084	0.16235	-0.004578	-0.010376
16.092	0.002899	0.0177	-0.12024	0.006409	0.02655	-0.020142	0.034485	-0.002594	0.092316	-0.012207	0.16037	-0.006561	-0.03952	-0.0383	-0.12741	-0.005035	-0.002441	-0.44174	0.22278	-0.039215	0.041199	-0.018616	0.013428	-0.016785	-0.14938	-0.001068	-0.70801	-0.00946	0.34729	0.11719	-0.005798	-0.004883
16.093	-0.00351	0.012207	-0.18295	0.010071	-0.013428	0.018921	0.048218	0.007324	0.096741	-0.018463	0.17166	-0.008698	0.009155	0.024567	-0.45349	-0.013428	-0.035095	-0.38345	-0.14236	-0.08667	0.037994	0.027618	-0.33173	0.14938	0.1326	0.00824	-0.073547	-0.007019	0.12772	0.071106	-0.003662	0.002441
16.094	-0.006866	0.011292	-0.1265	0.009003	-0.034027	0.009918	0.032654	0.004883	0.10086	-0.026703	-0.078125	-0.015869	0.085144	0.000458	-0.22354	-0.014954	-0.020294	-0.38406	-0.088806	-0.087128	0.028076	0.001221	-0.40375	0.17395	0.082245	0.000458	0.87341	-0.007477	-0.35385	0.1239	-0.00412	0.011749
16.095	0.003357	0.023804	0.058746	0.004883	-0.064087	0.010071	0.032196	-0.001221	0.11246	-0.019531	-0.12177	-0.010376	0.093536	0.007935	-0.079346	-0.011902	-0.013885	-0.37323	0.057678	-0.028687	0.009003	0.005493	-0.30548	0.15045	0.062408	-0.009155	1.244	-0.00824	-0.64041	0.034332	-0.00412	0.003967
16.096	0.005493	-0.000458	0.18265	0.003967	-0.087891	-0.020447	0.043335	0.000153	0.10834	0.000763	-0.1445	-0.02182	0.070343	0.001678	-0.12405	-0.00473	-0.002136	-0.29938	-0.064087	0.041351	0.014496	0.006866	-0.32684	0.086517	0.10696	-0.009308	1.244	-0.007324	-0.48752	0.019073	-0.002747	-0.003815
16.097	0.008392	-0.031433	0.048065	0.011749	-0.036774	-0.059052	0.030975	-0.001984	0.10422	-0.007019	-0.090027	-0.011597	0.061035	0.008698	-0.005646	-0.010071	-0.001526	-0.34134	-0.12894	0.063934	0.011902	-0.010223	-0.17136	0.029755	0.15121	0.000458	0.51025	-0.007477	0.22049	-0.097198	-0.003052	0.000153
16.098	0.007324	-0.021515	0.03418	0.011444	-0.000153	-0.076752	0.025177	0.000916	0.10941	-0.014343	-0.016937	-0.012817	0.049133	0.009308	0.047302	-0.015106	-0.011749	-0.32227	0.024567	-0.032349	0.014038	0.003357	-0.15961	0.11078	0.14526	0.00824	0.028534	-0.005035	1.0623	-0.16815	-0.003357	-0.002136
